<?xml version="1.0" encoding="UTF-8"?><svg id="Layer_1" xmlns="http://www.w3.org/2000/svg" viewBox="0 0 93.54 39.69"><path d="M46.92,25.96h8.64c.31,0,.55-.25.55-.55v-2.44c0-.57-.24-.89-.73-.97l-5.73-1.17c-2.35-.47-3.52-2.04-3.52-4.73v-1.97c0-2.54,2.06-4.61,4.61-4.61h6.58c.29,0,.55.16.69.42l1.33,2.59c.19.37-.08.81-.49.81h-7.93c-.31,0-.55.25-.55.55v2.24c0,.55.24.87.73.97l5.72,1.15c2.35.47,3.52,2.05,3.52,4.73v2.21c0,2.54-2.06,4.61-4.61,4.61h-7.12c-.32,0-.61-.18-.75-.46l-1.37-2.66c-.16-.32.07-.7.43-.7Z"/><path d="M79.36,29.19V10.09c0-.3.26-.54.57-.5l3.1.38c.32.04.56.31.56.63v14.92c0,.24.2.44.44.44h7.75c.31,0,.57.25.57.57v2.76c0,.27-.22.49-.49.49h-11.9c-.32,0-.58-.26-.58-.58Z"/><path d="M62.87,25.96h8.64c.31,0,.55-.25.55-.55v-2.44c0-.57-.24-.89-.73-.97l-5.73-1.17c-2.35-.47-3.52-2.04-3.52-4.73v-1.97c0-2.54,2.06-4.61,4.61-4.61h6.58c.29,0,.55.16.69.42l1.33,2.59c.19.37-.08.81-.49.81h-7.93c-.31,0-.55.25-.55.55v2.24c0,.55.24.87.73.97l5.72,1.15c2.35.47,3.52,2.05,3.52,4.73v2.21c0,2.54-2.06,4.61-4.61,4.61h-7.12c-.32,0-.61-.18-.75-.46l-1.37-2.66c-.16-.32.07-.7.43-.7Z"/><path d="M24.5,15.46h-8.63V5.25c0-.6.49-1.09,1.09-1.09h2.92c.6,0,1.09.49,1.09,1.09v4.01c0,.6.49,1.09,1.09,1.09h0c.28,0,.54-.1.74-.29L32.03,1.46c.44-.41,1.13-.39,1.54.05l1.99,2.14c.41.44.39,1.13-.05,1.54l-11,10.27Z"/><path d="M24.5,24.09v-8.63h10.2c.6,0,1.09.49,1.09,1.09v2.92c0,.6-.49,1.09-1.09,1.09h-4.01c-.6,0-1.09.49-1.09,1.09h0c0,.28.1.54.29.74l8.6,9.22c.41.44.39,1.13-.05,1.54l-2.14,1.99c-.44.41-1.13.39-1.54-.05l-10.27-11Z"/><path d="M15.87,24.09h8.63v10.2c0,.6-.49,1.09-1.09,1.09h-2.92c-.6,0-1.09-.49-1.09-1.09v-4.01c0-.6-.49-1.09-1.09-1.09h0c-.28,0-.54.1-.74.29l-9.22,8.6c-.44.41-1.13.39-1.54-.05l-1.99-2.14c-.41-.44-.39-1.13.05-1.54l11-10.27Z"/><path d="M15.87,15.46v8.63H5.67c-.6,0-1.09-.49-1.09-1.09v-2.92c0-.6.49-1.09,1.09-1.09h4.01c.6,0,1.09-.49,1.09-1.09h0c0-.28-.1-.54-.29-.74L1.87,7.93c-.41-.44-.39-1.13.05-1.54l2.14-1.99c.44-.41,1.13-.39,1.54.05l10.27,11Z"/></svg>